<svg version="1.1" id="Layer_1" xmlns="http://www.w3.org/2000/svg" xmlns:xlink="http://www.w3.org/1999/xlink" x="0px" y="0px"
	 width="100%" viewBox="0 0 816 496" enable-background="new 0 0 816 496" xml:space="preserve">
<path fill="#000000" opacity="1.000000" stroke="none" 
	d="
M395.717773,425.845520 
	C392.337982,433.489288 389.215546,440.860809 383.285156,446.569031 
	C376.943848,452.672852 371.654144,452.953247 364.742218,447.410187 
	C360.138275,443.718018 356.745239,438.911072 353.204620,434.308197 
	C340.504425,417.797760 328.197510,400.994476 316.565643,383.705627 
	C314.766479,381.031433 312.852234,378.520935 315.103851,375.097839 
	C316.058472,373.646515 314.874084,372.211975 314.241760,370.895691 
	C310.275299,362.638550 306.261139,354.404358 302.285553,346.151581 
	C301.617432,344.764740 300.761261,343.568115 299.429016,342.769165 
	C288.642120,336.300110 281.232941,326.732574 275.382629,315.912598 
	C273.182312,311.843170 271.036987,311.126923 266.771240,312.962463 
	C232.806381,327.577637 198.750793,341.982086 164.712112,356.425385 
	C163.086594,357.115112 161.564713,358.438568 158.764206,357.390717 
	C158.764206,349.091522 158.682785,340.504120 158.810822,331.919861 
	C158.852478,329.127014 161.582672,328.865448 163.484055,328.077454 
	C193.026840,315.834320 222.589691,303.639557 252.146484,291.430176 
	C253.994232,290.666870 255.772797,289.668518 257.682983,289.136993 
	C262.745239,287.728394 265.773529,285.249420 265.030365,279.272339 
	C264.614777,275.930084 266.608307,273.413635 270.453796,273.692474 
	C274.037476,273.952362 277.023682,271.209900 280.576691,272.209473 
	C281.768036,266.119690 284.458984,264.009094 290.797699,264.563171 
	C293.529755,264.801971 295.380615,264.340332 297.299896,262.155426 
	C300.184814,258.871216 304.036621,259.013306 308.258850,263.057465 
	C311.437378,266.101929 314.158295,266.188354 318.019897,264.798767 
	C361.905762,249.007004 405.346008,232.031296 449.037567,215.725494 
	C453.640717,214.007584 452.644958,211.348022 451.340424,208.290680 
	C446.174957,196.184891 441.430817,183.917801 437.061737,171.503174 
	C434.880768,165.306015 433.678070,159.031082 434.531158,152.396454 
	C434.953400,149.112747 434.855286,145.736862 433.367523,142.502838 
	C431.234009,142.183411 430.173462,143.906174 428.831726,144.982697 
	C421.832672,150.598373 414.576630,150.832565 408.958954,145.561615 
	C403.065613,140.032013 402.159363,130.763565 407.515198,124.284828 
	C409.872833,121.432861 409.783417,119.649521 408.110138,116.563614 
	C400.001343,101.609062 405.322693,86.492447 421.083221,80.037529 
	C425.136963,78.377258 427.734497,76.072510 429.432953,72.196800 
	C430.495239,69.772827 432.040314,67.554657 433.426788,65.279518 
	C439.358215,55.546608 448.112244,50.971165 459.407257,51.663620 
	C465.083496,52.011612 469.647644,51.711903 473.437408,46.157490 
	C476.969543,40.980587 484.850830,39.710117 490.228088,42.848858 
	C495.079773,45.680836 500.209015,46.171154 505.438629,46.902321 
	C521.009338,49.079292 533.714417,55.903599 541.227905,70.205894 
	C544.979675,77.347572 549.822998,83.660828 554.388489,90.204704 
	C565.078003,105.526108 564.702148,121.602852 557.624573,138.082687 
	C556.504822,140.689972 555.476074,143.191406 555.005615,146.056625 
	C553.901611,152.780136 548.977051,158.078293 542.866516,158.162521 
	C536.500732,158.250290 533.890869,162.362762 532.265320,166.980362 
	C530.151672,172.984558 527.159424,178.069122 522.444153,182.319336 
	C519.366089,185.093811 518.851440,188.831818 519.389954,192.710526 
	C521.662048,193.636475 523.274902,192.494995 524.911926,191.864059 
	C554.909058,180.302383 584.857178,168.611832 614.914856,157.210266 
	C619.596008,155.434601 619.686829,153.601608 617.472229,149.639389 
	C601.378052,120.844963 585.403015,91.983154 569.589844,63.033657 
	C567.668884,59.516861 565.644470,58.098103 561.769226,59.167923 
	C559.701111,59.738834 557.505249,59.839687 555.371948,60.183315 
	C552.675049,60.617718 550.244568,60.567123 549.757874,57.075371 
	C549.297180,53.769627 549.797729,50.879917 553.810120,50.409451 
	C557.293213,50.001045 560.700134,50.099583 562.350098,45.871872 
	C562.997498,44.212906 565.752197,43.406254 567.180420,44.671047 
	C572.754700,49.607513 578.846497,46.518822 584.726868,46.220798 
	C591.039001,45.900898 597.338623,45.317944 603.639709,44.800995 
	C606.745789,44.546165 608.341919,45.701618 608.255005,49.014900 
	C608.174866,52.066414 608.624329,54.863251 604.075745,55.404816 
	C596.836060,56.266808 589.443909,55.719452 582.204041,57.630806 
	C582.289246,60.025013 584.182922,61.085472 585.491455,62.437763 
	C610.520081,88.303177 635.547302,114.170303 660.693665,139.920959 
	C663.710754,143.010513 664.499451,145.981750 663.610413,150.222809 
	C657.838745,177.753983 649.700012,204.746338 644.776733,232.459808 
	C639.653809,261.297241 634.019043,290.034241 628.505371,318.796509 
	C627.078125,326.241638 629.787292,333.655823 630.648376,341.061462 
	C634.855957,377.246399 641.520508,413.127319 643.881104,449.547028 
	C644.916626,465.522949 645.098999,465.249817 629.077637,466.419403 
	C616.086670,467.367737 603.099854,467.037720 590.111633,467.244873 
	C583.653992,467.347839 583.528259,467.005432 585.508789,460.658722 
	C586.103516,458.752838 586.607544,456.815857 587.070740,454.873474 
	C587.216431,454.262756 587.093445,453.587952 587.093445,452.425415 
	C582.169556,451.907562 577.432556,452.097748 572.700256,453.013336 
	C570.277466,453.482086 570.779541,455.257233 570.913147,456.928467 
	C571.923157,469.559204 571.042114,467.166504 561.281799,467.180389 
	C507.621094,467.256683 453.960236,467.212128 400.299408,467.208344 
	C392.979095,467.207825 392.875732,467.192535 393.805115,460.065857 
	C395.267487,448.851685 396.896240,437.659271 398.423309,426.453400 
	C398.623322,424.985535 398.638519,423.492493 398.778778,421.430298 
	C396.835846,422.564056 396.665222,424.276825 395.717773,425.845520 
M532.923279,225.771133 
	C534.264465,227.703094 535.634521,229.757828 535.677612,232.102722 
	C535.745911,235.815903 537.975830,237.360931 540.982483,238.406540 
	C543.021912,239.115768 545.026550,240.030457 547.127319,240.440445 
	C559.127258,242.782257 569.324646,249.231033 579.968201,254.668243 
	C581.189087,255.291916 582.287109,256.172546 582.691528,257.470154 
	C583.483093,260.010040 585.527039,261.022583 587.665527,262.001923 
	C598.767822,267.086243 606.748352,275.650940 613.673523,285.377380 
	C615.415771,287.824371 617.053528,290.345734 619.294373,293.651886 
	C619.481750,291.649353 619.602234,290.838745 619.627258,290.025208 
	C620.684753,255.612122 621.764404,221.199677 622.758850,186.784775 
	C622.965637,179.629608 622.059937,179.016190 615.459290,181.608719 
	C587.281311,192.676071 559.126038,203.801208 530.973267,214.932617 
	C529.496094,215.516678 527.690613,215.714600 526.972168,217.559280 
	C527.906189,220.769318 530.536072,222.732788 532.923279,225.771133 
M360.064026,285.528656 
	C350.685974,293.476715 345.155823,303.702179 342.216858,315.497620 
	C341.695923,317.588501 341.350891,320.069183 340.016815,321.554565 
	C332.230743,330.223663 339.117279,336.156464 343.609406,342.578125 
	C344.280090,343.536865 345.093811,344.807770 346.338409,344.403870 
	C349.798401,343.281036 351.103943,345.810577 352.769196,347.825134 
	C355.741180,351.420502 358.657257,355.063721 361.700165,358.597900 
	C362.830078,359.910248 363.784973,362.044586 366.001099,361.318024 
	C367.896454,360.696594 367.613190,358.609558 367.917786,357.021729 
	C371.684052,337.387695 373.614166,317.511536 375.691895,297.656738 
	C376.522552,289.718872 377.248627,281.769073 377.910828,273.815399 
	C378.055267,272.080536 378.394592,269.485291 375.840881,269.516510 
	C372.407928,269.558502 368.455078,270.075256 367.194092,273.975800 
	C365.809357,278.259003 363.300079,281.653351 360.064026,285.528656 
M337.604919,288.251953 
	C338.194611,287.022797 339.722351,285.950195 337.904053,283.902374 
	C333.988708,285.324158 329.719574,286.259155 326.571228,289.954498 
	C330.929749,294.419708 334.111572,292.059296 337.604919,288.251953 
z"/>
</svg>